<?xml version="1.0" encoding="utf-8"?>
<!-- Generator: Adobe Illustrator 24.0.1, SVG Export Plug-In . SVG Version: 6.00 Build 0)  -->
<svg version="1.1" id="Layer_1" xmlns="http://www.w3.org/2000/svg" xmlns:xlink="http://www.w3.org/1999/xlink" x="0px" y="0px"
	 viewBox="0 0 485 43.5" style="enable-background:new 0 0 485 43.5;" xml:space="preserve">
<style type="text/css">
	.st0{fill:#F68B20;}
	.st1{fill:#FFFFFF;}
</style>
<g>
	<g>
		<path d="M38.5,34c-1.1,1.3-2.3,2.5-3.6,3.5c-1.3,1-2.6,1.8-4,2.4c-1.4,0.6-2.8,1.1-4.3,1.4c-1.5,0.3-2.9,0.5-4.3,0.5
			c-2.9,0-5.5-0.5-8-1.5c-2.5-1-4.7-2.4-6.5-4.2c-1.9-1.8-3.3-3.9-4.4-6.3c-1.1-2.4-1.6-5.1-1.6-7.9c0-2.8,0.5-5.3,1.6-7.8
			c1.1-2.4,2.5-4.5,4.4-6.3c1.9-1.8,4.1-3.2,6.6-4.3c2.5-1,5.2-1.6,8-1.6c3.3,0,6.3,0.7,9,2c2.7,1.3,5,3.1,6.9,5.4l-5,5.1
			c-1.4-2-3.1-3.4-4.8-4.2c-1.8-0.8-3.8-1.3-6-1.3c-1.8,0-3.5,0.3-5.1,1c-1.6,0.7-3,1.6-4.2,2.8c-1.2,1.2-2.1,2.5-2.8,4.1
			c-0.7,1.6-1,3.2-1,5c0,1.8,0.3,3.5,1,5c0.7,1.6,1.6,2.9,2.8,4.1c1.2,1.2,2.6,2.1,4.2,2.8c1.6,0.7,3.3,1,5.1,1c1.7,0,3.4-0.3,4.9-1
			c1.5-0.6,2.9-1.5,4.1-2.5v-3.7h-7.9v-6.3h15V34z"/>
		<path d="M67.9,41.1H61V39c-0.4,0.4-1,0.8-1.6,1.2c-0.6,0.3-1.2,0.6-1.9,0.9c-0.7,0.2-1.3,0.4-2,0.6c-0.7,0.1-1.3,0.2-1.9,0.2
			c-1.4,0-2.8-0.2-4.1-0.7c-1.3-0.4-2.4-1.1-3.4-2.1c-1-0.9-1.8-2.1-2.4-3.6c-0.6-1.5-0.9-3.2-0.9-5.2V13.3h6.9v16.5
			c0,1,0.2,1.9,0.5,2.6c0.3,0.8,0.7,1.4,1.2,1.9c0.5,0.5,1.1,0.9,1.7,1.1c0.7,0.2,1.3,0.4,2,0.4c2.2,0,4.2-0.8,5.8-2.3V13.3h6.9
			V41.1z"/>
		<path d="M89.2,40.5c-0.7,0.4-1.5,0.8-2.5,1c-0.9,0.2-1.9,0.3-2.8,0.3c-1.6,0-3-0.2-4.1-0.6c-1.1-0.4-2-1-2.7-1.8
			c-0.7-0.8-1.2-1.9-1.5-3.2c-0.3-1.3-0.5-2.8-0.5-4.5V19.5h-3.7v-3.1c2.2-0.9,4.1-2.3,5.5-4.1c1.4-1.8,2.3-4.2,2.9-7.1h2.3v8.1h7
			v6.2h-7v12.6c0,0.7,0.1,1.3,0.3,1.7c0.2,0.4,0.4,0.8,0.7,1.1c0.3,0.3,0.6,0.4,1,0.5c0.4,0.1,0.8,0.1,1.2,0.1c0.5,0,1.2-0.1,2-0.3
			c0.8-0.2,1.4-0.5,2-1V40.5z"/>
		<path d="M113.6,33.3c0,1.4-0.3,2.6-1,3.7c-0.6,1.1-1.5,2-2.5,2.7s-2.2,1.3-3.5,1.6c-1.3,0.4-2.6,0.6-3.8,0.6
			c-2.1,0-4.1-0.4-5.9-1.2c-1.8-0.8-3.3-2-4.7-3.8l4.2-4.2c0.8,1.1,1.8,1.9,2.9,2.5c1.1,0.6,2.3,0.9,3.5,0.9c1.1,0,2-0.2,2.7-0.6
			s1.1-1,1.1-1.8c0-0.8-0.5-1.5-1.5-2.1c-1-0.6-2.5-1.1-4.3-1.7c-1.1-0.3-2.1-0.7-3.2-1.2c-1-0.5-1.9-1.1-2.7-1.8
			c-0.8-0.7-1.4-1.5-1.9-2.5c-0.5-0.9-0.7-2-0.7-3.2c0-1.3,0.3-2.6,0.9-3.6c0.6-1.1,1.4-2,2.5-2.7s2.2-1.3,3.4-1.7
			c1.3-0.4,2.6-0.6,3.9-0.6c4.2,0,7.7,1.6,10.4,4.8l-4.1,4.2c-0.8-1-1.7-1.8-2.7-2.4c-1-0.6-2.1-0.9-3.4-0.9c-0.4,0-0.9,0.1-1.3,0.2
			c-0.5,0.1-0.9,0.3-1.3,0.5c-0.4,0.2-0.7,0.5-1,0.8c-0.3,0.3-0.4,0.7-0.4,1.1c0,0.7,0.5,1.4,1.5,1.9c1,0.5,2.4,1.1,4.2,1.6
			c1.2,0.4,2.3,0.8,3.4,1.3c1.1,0.5,2,1.2,2.8,1.9c0.8,0.7,1.4,1.5,1.9,2.5C113.4,31.1,113.6,32.2,113.6,33.3z"/>
		<path d="M142.9,36.9c-1.4,1.6-3.1,2.8-5.1,3.7c-2,0.8-4.1,1.2-6.2,1.2c-2,0-3.9-0.4-5.7-1.1c-1.8-0.7-3.3-1.8-4.7-3.1
			c-1.3-1.3-2.4-2.8-3.1-4.6c-0.8-1.8-1.1-3.7-1.1-5.8c0-2,0.4-4,1.1-5.7c0.8-1.8,1.8-3.3,3.1-4.6c1.3-1.3,2.9-2.3,4.6-3.1
			c1.8-0.8,3.7-1.1,5.8-1.1c2.1,0,4.1,0.4,6,1.2c1.9,0.8,3.6,1.9,5,3.5l-4.7,4.8c-0.7-0.9-1.6-1.7-2.6-2.3c-1-0.6-2.2-0.9-3.7-0.9
			c-1.1,0-2.1,0.2-3,0.7c-0.9,0.4-1.8,1-2.5,1.8c-0.7,0.8-1.3,1.6-1.7,2.7c-0.4,1-0.6,2.1-0.6,3.3c0,1.2,0.2,2.2,0.6,3.3
			c0.4,1,1,1.9,1.7,2.7c0.7,0.8,1.5,1.4,2.5,1.8c1,0.4,2,0.7,3,0.7c1.4,0,2.6-0.3,3.7-1c1.1-0.7,2-1.5,2.7-2.5L142.9,36.9z"/>
		<path d="M171.5,41.1h-6.9V24.5c0-1-0.2-1.9-0.5-2.6c-0.3-0.8-0.7-1.4-1.2-1.9s-1.1-0.9-1.7-1.1s-1.3-0.4-2.1-0.4
			c-1.1,0-2.1,0.2-3,0.5c-1,0.3-1.9,0.8-2.8,1.3v20.8h-6.9V1.3h6.9l0,13.6c1-0.8,2.2-1.4,3.6-1.8s2.6-0.6,3.9-0.6
			c1.4,0,2.8,0.2,4.1,0.7c1.3,0.5,2.4,1.2,3.4,2.1c1,0.9,1.8,2.1,2.4,3.6c0.6,1.4,0.9,3.1,0.9,5.1V41.1z"/>
		<path d="M205.4,27.2c0,0.4,0,0.9-0.1,1.4c0,0.5-0.1,1-0.2,1.5H183c0.3,0.8,0.6,1.6,1.1,2.3c0.5,0.7,1,1.3,1.7,1.9
			c0.7,0.5,1.4,0.9,2.3,1.2c0.8,0.3,1.8,0.5,2.8,0.5c1.2,0,2.5-0.2,3.7-0.6c1.2-0.4,2.3-1,3.1-1.8l4.4,4.4c-1.9,1.4-3.8,2.5-5.6,3.1
			c-1.8,0.6-3.8,0.9-5.8,0.9c-2.1,0-4-0.4-5.8-1.2c-1.8-0.8-3.4-1.8-4.7-3.1c-1.3-1.3-2.4-2.9-3.1-4.6c-0.8-1.8-1.2-3.7-1.2-5.7
			s0.4-3.9,1.2-5.7c0.8-1.8,1.8-3.3,3.2-4.6c1.3-1.3,2.9-2.4,4.7-3.1c1.8-0.8,3.7-1.2,5.8-1.2c2,0,3.8,0.4,5.6,1.1
			c1.8,0.7,3.4,1.7,4.8,3c1.4,1.3,2.5,2.8,3.3,4.6C205,23.1,205.4,25,205.4,27.2z M198.2,24.5c-0.5-1.8-1.5-3.2-2.9-4.3
			c-1.4-1.1-3-1.6-4.7-1.6c-1.7,0-3.3,0.5-4.7,1.6c-1.4,1.1-2.3,2.5-2.9,4.3H198.2z"/>
		<path d="M217,8.5h-7.2V1.3h7.2V8.5z M216.9,41.1h-7V13.3h7V41.1z"/>
		<path d="M248.5,41.1h-6.9V24.5c0-1-0.2-1.9-0.5-2.6c-0.3-0.8-0.7-1.4-1.2-1.9c-0.5-0.5-1.1-0.9-1.8-1.1c-0.7-0.2-1.3-0.4-2-0.4
			c-1.1,0-2.1,0.2-3.1,0.6c-1,0.4-2,1-2.8,1.8v20.2h-6.9V13.3h6.9l0,2.1c0.4-0.4,0.9-0.8,1.5-1.2c0.6-0.4,1.2-0.6,1.9-0.9
			c0.7-0.2,1.3-0.4,2-0.6c0.7-0.1,1.4-0.2,2-0.2c1.4,0,2.8,0.2,4.1,0.7c1.3,0.4,2.5,1.1,3.5,2.1c1,0.9,1.8,2.1,2.4,3.6
			c0.6,1.5,0.9,3.2,0.9,5.2V41.1z"/>
		<path d="M274.1,33.3c0,1.4-0.3,2.6-1,3.7s-1.5,2-2.5,2.7s-2.2,1.3-3.5,1.6c-1.3,0.4-2.6,0.6-3.8,0.6c-2.1,0-4.1-0.4-5.9-1.2
			c-1.8-0.8-3.3-2-4.7-3.8l4.2-4.2c0.8,1.1,1.8,1.9,2.9,2.5c1.1,0.6,2.3,0.9,3.5,0.9c1.1,0,2-0.2,2.7-0.6s1.1-1,1.1-1.8
			c0-0.8-0.5-1.5-1.5-2.1s-2.5-1.1-4.3-1.7c-1.1-0.3-2.1-0.7-3.2-1.2c-1-0.5-1.9-1.1-2.7-1.8c-0.8-0.7-1.4-1.5-1.9-2.5
			c-0.5-0.9-0.7-2-0.7-3.2c0-1.3,0.3-2.6,0.9-3.6c0.6-1.1,1.4-2,2.5-2.7c1-0.7,2.2-1.3,3.4-1.7s2.6-0.6,3.9-0.6
			c4.2,0,7.7,1.6,10.4,4.8l-4.1,4.2c-0.8-1-1.7-1.8-2.7-2.4c-1-0.6-2.1-0.9-3.4-0.9c-0.4,0-0.9,0.1-1.3,0.2
			c-0.5,0.1-0.9,0.3-1.3,0.5c-0.4,0.2-0.7,0.5-1,0.8c-0.3,0.3-0.4,0.7-0.4,1.1c0,0.7,0.5,1.4,1.5,1.9c1,0.5,2.4,1.1,4.2,1.6
			c1.2,0.4,2.3,0.8,3.4,1.3c1.1,0.5,2,1.2,2.8,1.9c0.8,0.7,1.4,1.5,1.9,2.5C273.9,31.1,274.1,32.2,274.1,33.3z"/>
		<path d="M314.5,34.2c-1.9,2.3-4.3,4.2-7,5.6s-5.8,2.1-9.1,2.1c-2.9,0-5.5-0.5-8-1.6c-2.5-1-4.7-2.5-6.5-4.3
			c-1.8-1.8-3.3-3.9-4.4-6.3c-1.1-2.4-1.6-5-1.6-7.8s0.5-5.4,1.6-7.8c1.1-2.4,2.5-4.5,4.4-6.3c1.8-1.8,4-3.2,6.5-4.3
			c2.5-1,5.2-1.5,8-1.5c3.3,0,6.3,0.7,9.1,2.1c2.7,1.4,5,3.2,6.8,5.4l-5.1,5.3c-1.2-1.7-2.7-3.1-4.6-4.1c-1.9-1-3.9-1.6-6.2-1.6
			c-1.8,0-3.5,0.3-5.1,1c-1.6,0.7-3,1.6-4.2,2.8c-1.2,1.2-2.1,2.5-2.8,4.1c-0.7,1.6-1,3.2-1,5c0,1.7,0.3,3.4,1,4.9s1.6,2.9,2.8,4.1
			c1.2,1.2,2.6,2.1,4.2,2.8c1.6,0.7,3.3,1,5.1,1c2.4,0,4.5-0.5,6.3-1.6c1.8-1.1,3.3-2.5,4.6-4.3L314.5,34.2z"/>
		<path d="M346.1,27.2c0,2.1-0.4,4-1.2,5.8c-0.8,1.8-1.8,3.3-3.2,4.6c-1.3,1.3-2.9,2.3-4.7,3.1s-3.7,1.1-5.8,1.1
			c-2.1,0-4-0.4-5.8-1.1c-1.8-0.8-3.4-1.8-4.7-3.1c-1.3-1.3-2.4-2.9-3.2-4.6c-0.8-1.8-1.2-3.7-1.2-5.7c0-2,0.4-3.9,1.2-5.7
			c0.8-1.8,1.8-3.3,3.2-4.7c1.3-1.3,2.9-2.4,4.7-3.1c1.8-0.8,3.7-1.1,5.7-1.1c2,0,4,0.4,5.8,1.1c1.8,0.8,3.4,1.8,4.7,3.1
			c1.3,1.3,2.4,2.8,3.2,4.6C345.7,23.2,346.1,25.2,346.1,27.2z M339.2,27.2c0-1.2-0.2-2.3-0.6-3.3c-0.4-1-1-1.9-1.7-2.7
			c-0.7-0.8-1.6-1.4-2.5-1.8c-1-0.4-2-0.6-3.1-0.6c-1.1,0-2.1,0.2-3.1,0.6c-1,0.4-1.8,1-2.5,1.8c-0.7,0.8-1.3,1.7-1.7,2.7
			c-0.4,1-0.6,2.1-0.6,3.3c0,1.2,0.2,2.3,0.6,3.3c0.4,1,1,1.9,1.7,2.7c0.7,0.8,1.6,1.4,2.5,1.8s2,0.6,3.1,0.6c1.1,0,2.1-0.2,3.1-0.6
			s1.8-1,2.5-1.8s1.3-1.7,1.7-2.7C339,29.5,339.2,28.4,339.2,27.2z"/>
		<path d="M376.2,41.1h-7.1v-1.4c-0.9,0.7-1.9,1.3-2.9,1.6c-1.1,0.3-2.2,0.5-3.4,0.5c-2,0-3.7-0.4-5.4-1.2c-1.6-0.8-3-1.8-4.2-3.2
			c-1.2-1.3-2.1-2.9-2.8-4.6c-0.7-1.8-1-3.6-1-5.6c0-2.1,0.4-4,1.1-5.8c0.8-1.8,1.8-3.3,3-4.6c1.2-1.3,2.7-2.3,4.3-3.1
			c1.6-0.8,3.3-1.1,4.9-1.1c1.2,0,2.3,0.2,3.5,0.5c1.1,0.3,2.1,0.8,2.9,1.3V1.2h7V41.1z M369.2,33.7V20.3c-0.3-0.2-0.7-0.4-1.1-0.6
			c-0.4-0.2-0.9-0.4-1.3-0.5c-0.5-0.1-0.9-0.3-1.4-0.3c-0.5-0.1-0.9-0.1-1.2-0.1c-1.2,0-2.2,0.2-3.2,0.6c-0.9,0.4-1.8,1-2.5,1.7
			c-0.7,0.8-1.3,1.7-1.6,2.7s-0.6,2.2-0.6,3.5c0,1.2,0.2,2.4,0.6,3.4s0.9,1.9,1.6,2.7c0.7,0.8,1.5,1.3,2.4,1.8s2,0.6,3.1,0.6
			C365.9,35.7,367.6,35,369.2,33.7z"/>
		<path d="M410.6,27.2c0,0.4,0,0.9-0.1,1.4s-0.1,1-0.2,1.5h-22.2c0.3,0.8,0.6,1.6,1.1,2.3c0.5,0.7,1,1.3,1.7,1.9
			c0.7,0.5,1.4,0.9,2.3,1.2c0.8,0.3,1.8,0.5,2.8,0.5c1.2,0,2.5-0.2,3.7-0.6s2.3-1,3.1-1.8l4.4,4.4c-1.9,1.4-3.8,2.5-5.6,3.1
			c-1.8,0.6-3.8,0.9-5.8,0.9c-2.1,0-4-0.4-5.8-1.2c-1.8-0.8-3.4-1.8-4.7-3.1s-2.4-2.9-3.1-4.6c-0.8-1.8-1.2-3.7-1.2-5.7
			s0.4-3.9,1.2-5.7c0.8-1.8,1.8-3.3,3.2-4.6c1.3-1.3,2.9-2.4,4.7-3.1c1.8-0.8,3.7-1.2,5.8-1.2c2,0,3.8,0.4,5.6,1.1
			c1.8,0.7,3.4,1.7,4.8,3c1.4,1.3,2.5,2.8,3.3,4.6C410.2,23.1,410.6,25,410.6,27.2z M403.4,24.5c-0.5-1.8-1.5-3.2-2.9-4.3
			c-1.4-1.1-3-1.6-4.7-1.6c-1.7,0-3.3,0.5-4.7,1.6c-1.4,1.1-2.3,2.5-2.9,4.3H403.4z"/>
		<path d="M435.3,33.3c0,1.4-0.3,2.6-1,3.7s-1.5,2-2.5,2.7c-1,0.7-2.2,1.3-3.5,1.6c-1.3,0.4-2.6,0.6-3.8,0.6c-2.1,0-4.1-0.4-5.9-1.2
			c-1.8-0.8-3.3-2-4.7-3.8l4.2-4.2c0.8,1.1,1.8,1.9,2.9,2.5c1.1,0.6,2.3,0.9,3.5,0.9c1.1,0,2-0.2,2.7-0.6s1.1-1,1.1-1.8
			c0-0.8-0.5-1.5-1.5-2.1c-1-0.6-2.5-1.1-4.3-1.7c-1.1-0.3-2.1-0.7-3.2-1.2c-1-0.5-1.9-1.1-2.7-1.8c-0.8-0.7-1.4-1.5-1.9-2.5
			c-0.5-0.9-0.7-2-0.7-3.2c0-1.3,0.3-2.6,0.9-3.6c0.6-1.1,1.4-2,2.5-2.7s2.2-1.3,3.4-1.7s2.6-0.6,3.9-0.6c4.2,0,7.7,1.6,10.4,4.8
			l-4.1,4.2c-0.8-1-1.7-1.8-2.7-2.4c-1-0.6-2.1-0.9-3.4-0.9c-0.4,0-0.9,0.1-1.3,0.2c-0.5,0.1-0.9,0.3-1.3,0.5
			c-0.4,0.2-0.7,0.5-1,0.8c-0.3,0.3-0.4,0.7-0.4,1.1c0,0.7,0.5,1.4,1.5,1.9c1,0.5,2.4,1.1,4.2,1.6c1.2,0.4,2.3,0.8,3.4,1.3
			c1.1,0.5,2,1.2,2.8,1.9c0.8,0.7,1.4,1.5,1.9,2.5C435.1,31.1,435.3,32.2,435.3,33.3z"/>
	</g>
</g>
<g>
	<g>
		<g>
			<path class="st0" d="M450.9,3.4c0-0.2,0.2-0.3,0.4-0.2c1.9,0.6,3.7,1.2,5.5,1.8c0.4,0.1,0.6,0.1,0.9-0.2c1.1-1.3,2.4-2.6,3.5-3.9
				c0.5-0.6,0.7-0.4,1.1,0c1.1,1.3,2.3,2.6,3.5,3.9c0.2,0.3,0.5,0.4,0.8,0.2c1.7-0.6,3.4-1.1,5-1.6c0.9-0.3,0.8-0.3,1,0.6
				c0.4,1.7,0.7,3.4,1.1,5.1c0.1,0.4,0.3,0.6,0.7,0.7c1.8,0.4,3.6,0.8,5.4,1.2c0.3,0.1,0.4,0.1,0.3,0.5c-0.6,1.8-1.1,3.6-1.7,5.3
				c-0.2,0.5,0,0.8,0.3,1.1c1.4,1.2,2.7,2.4,4,3.6c0.3,0.2,0.3,0.4,0,0.6c-1.4,1.2-2.7,2.5-4.1,3.7c-0.4,0.3-0.4,0.6-0.3,1
				c0.6,1.7,1.1,3.4,1.7,5.1c0.2,0.5,0.1,0.7-0.4,0.8c-1.7,0.3-3.5,0.8-5.2,1.1c-0.5,0.1-0.7,0.4-0.8,0.8c-0.4,1.8-0.8,3.5-1.1,5.3
				c-0.1,0.4-0.2,0.5-0.6,0.4c-1.7-0.6-3.5-1.1-5.2-1.7c-0.5-0.2-0.8-0.1-1.1,0.3c-1.1,1.3-2.3,2.6-3.5,3.9c-0.3,0.4-0.5,0.5-0.9,0
				c-1.1-1.3-2.3-2.6-3.4-3.9c-0.3-0.4-0.6-0.5-1.2-0.3c-1.7,0.6-3.5,1.1-5.3,1.7c-0.3,0.1-0.5,0.1-0.5-0.3
				c-0.4-1.8-0.8-3.6-1.2-5.4c-0.1-0.5-0.3-0.7-0.8-0.8c-1.8-0.4-3.5-0.8-5.3-1.1c-0.4-0.1-0.6-0.3-0.4-0.7c0.6-1.7,1.1-3.5,1.7-5.3
				c0.1-0.4,0.1-0.6-0.3-0.9c-1.4-1.2-2.7-2.5-4.1-3.7c-0.3-0.3-0.3-0.4,0-0.6c1.4-1.2,2.7-2.4,4-3.6c0.4-0.4,0.5-0.7,0.3-1.2
				c-0.6-1.7-1.1-3.4-1.7-5c-0.2-0.5-0.1-0.7,0.5-0.8c1.7-0.4,3.5-0.8,5.2-1.1c0.5-0.1,0.7-0.3,0.8-0.8C450.1,7,450.5,5.2,450.9,3.4
				z"/>
		</g>
	</g>
	<g>
		<path class="st1" d="M461.1,16.2c0,0.6-0.1,1.3-0.4,1.8c-0.3,0.6-0.6,1.1-1,1.5c-0.4,0.4-0.9,0.8-1.5,1c-0.6,0.3-1.2,0.4-1.8,0.4
			c-0.6,0-1.3-0.1-1.8-0.4c-0.6-0.3-1.1-0.6-1.5-1c-0.4-0.4-0.8-0.9-1-1.5c-0.3-0.6-0.4-1.2-0.4-1.8c0-0.6,0.1-1.3,0.4-1.8
			c0.3-0.6,0.6-1.1,1-1.5c0.4-0.4,0.9-0.8,1.5-1c0.6-0.3,1.2-0.4,1.8-0.4c0.6,0,1.3,0.1,1.8,0.4c0.6,0.3,1.1,0.6,1.5,1
			c0.4,0.4,0.8,0.9,1,1.5C461,14.9,461.1,15.6,461.1,16.2z M469.2,11.8l-12.7,20h-3l12.7-20H469.2z M458.3,16.2c0-0.5-0.2-1-0.6-1.3
			c-0.4-0.4-0.8-0.6-1.3-0.6c-0.5,0-1,0.2-1.3,0.6c-0.4,0.4-0.6,0.8-0.6,1.3c0,0.5,0.2,1,0.6,1.3c0.4,0.4,0.8,0.6,1.3,0.6
			c0.5,0,1-0.2,1.3-0.6C458.1,17.2,458.3,16.7,458.3,16.2z M471.8,26.5c0,0.6-0.1,1.3-0.4,1.8c-0.3,0.6-0.6,1.1-1,1.5
			c-0.4,0.4-0.9,0.8-1.5,1c-0.6,0.3-1.2,0.4-1.8,0.4c-0.7,0-1.3-0.1-1.9-0.4c-0.6-0.3-1.1-0.6-1.5-1c-0.4-0.4-0.8-0.9-1-1.5
			c-0.2-0.6-0.4-1.2-0.4-1.8c0-0.7,0.1-1.3,0.4-1.9c0.2-0.6,0.6-1.1,1-1.5c0.4-0.4,0.9-0.8,1.5-1c0.6-0.2,1.2-0.4,1.9-0.4
			c0.6,0,1.3,0.1,1.8,0.4c0.6,0.2,1.1,0.6,1.5,1c0.4,0.4,0.8,0.9,1,1.5C471.7,25.2,471.8,25.8,471.8,26.5z M469,26.5
			c0-0.5-0.2-1-0.6-1.3c-0.4-0.4-0.8-0.6-1.3-0.6c-0.5,0-1,0.2-1.3,0.6c-0.4,0.4-0.6,0.8-0.6,1.3c0,0.5,0.2,1,0.6,1.3
			c0.4,0.4,0.8,0.6,1.3,0.6c0.5,0,1-0.2,1.3-0.6C468.8,27.5,469,27,469,26.5z"/>
	</g>
</g>
</svg>
